<svg width="300" height="66" viewBox="0 0 300 66" fill="none" xmlns="http://www.w3.org/2000/svg">
<g clip-path="url(#clip0_5741_300)">
<g clip-path="url(#clip1_5741_300)">
<path d="M290.088 30.1902V49.7126H282.927V31.4883C282.927 27.0441 281.013 24.5689 277.302 24.5689C273.591 24.5689 271.123 27.1651 270.441 31.547C270.254 32.5957 270.195 34.1981 270.195 37.601V49.7089H263.034V18.6983H269.381C269.396 18.977 269.55 21.7491 269.561 21.9141C269.572 22.1378 269.832 22.2515 270.008 22.1121C272.648 20.022 275.545 18.0823 279.586 18.0823C286.19 18.0823 290.088 22.5925 290.088 30.1902Z" fill="white"/>
<path d="M251.447 18.7132L251.212 22.2517C251.197 22.4791 250.926 22.5927 250.757 22.4424C249.896 21.6137 246.68 18.0935 241.249 18.0935C233.464 18.0935 227.722 24.8222 227.718 33.9563H227.711C227.711 43.2188 233.395 49.9548 241.245 49.9548C246.478 49.9548 249.69 46.563 250.277 45.8039C250.446 45.5986 250.772 45.7196 250.765 45.9836C250.699 46.9297 250.556 49.2948 249.775 51.3042C248.788 53.8454 246.551 56.1995 242.048 56.1995C238.345 56.1995 235.074 54.7804 231.979 51.7552L228.276 56.8852C231.671 60.7207 237.043 62.8842 242.855 62.8842C252.242 62.8842 257.867 56.4562 257.867 45.9543V18.7132H251.447ZM242.8 43.4792C238.169 43.4792 234.891 39.4676 234.891 33.9673C234.891 28.467 238.169 24.5728 242.8 24.5728C247.431 24.5728 250.706 28.4634 250.706 33.9673C250.706 39.4713 247.428 43.4792 242.8 43.4792Z" fill="white"/>
<path d="M212.765 40.5161C212.765 46.3904 207.818 50.3433 200.591 50.3433C194.907 50.3433 189.854 48.1248 186.814 44.9787L186.822 44.9713H186.811L189.168 39.3574C191.446 41.4145 195.123 44.359 200.352 44.359C204.001 44.359 206.098 42.7529 206.098 40.7104C206.098 38.36 203.191 37.7403 199.733 37.0582C194.79 36.0132 188.244 34.3411 188.244 27.6051C188.244 21.9801 192.817 18.0933 199.549 18.0933C204.734 18.0933 209.19 20.0697 212.27 22.6658L208.742 27.6088C205.776 25.262 202.629 24.0849 199.535 24.0849C196.44 24.0849 194.907 25.3866 194.907 27.2384C194.907 29.8345 198.248 30.5166 200.719 31.0079C206.898 32.24 212.765 34.0991 212.765 40.5161Z" fill="white"/>
<path d="M107.916 18.0823C99.1488 18.0823 92.8492 24.8843 92.8492 34.2091C92.8492 43.5339 99.1451 50.3359 107.916 50.3359C116.687 50.3359 122.991 43.5449 122.991 34.2091C122.991 24.8733 116.684 18.0823 107.916 18.0823ZM107.916 43.8493C103.289 43.8493 100.011 39.8964 100.011 34.2091C100.011 28.5218 103.223 24.5689 107.916 24.5689C112.61 24.5689 115.822 28.5255 115.822 34.2091C115.822 39.8927 112.547 43.8493 107.916 43.8493Z" fill="white"/>
<path d="M125.513 34.2091C125.513 25.0016 131.813 18.0823 140.221 18.0823C146.894 18.0823 151.775 21.4228 154.056 27.7224L147.694 30.1316C145.967 26.241 143.679 24.5726 140.217 24.5726C135.894 24.5726 132.682 28.6502 132.682 34.2128C132.682 39.7754 135.89 43.8529 140.217 43.8529C143.679 43.8529 145.959 42.1809 147.694 38.294L154.056 40.7031C151.775 47.0028 146.894 50.3433 140.221 50.3433C131.824 50.3433 125.513 43.4239 125.513 34.2164V34.1981V34.2054V34.2091Z" fill="white"/>
<path d="M87.1904 4.30591C87.0584 4.30591 86.9264 4.33891 86.8053 4.40125L82.1228 6.86904C82.0311 6.91671 81.9761 7.01205 81.9761 7.11472V21.8885C81.9761 22.1342 81.6901 22.2478 81.5067 22.0828C80.821 21.4778 79.204 19.9707 76.9562 18.9367C75.7938 18.4013 74.0704 18.086 72.5229 18.086C64.6795 18.086 58.9922 24.888 58.9922 34.2128C58.9922 43.5376 64.6759 50.3286 72.5229 50.3286C76.6518 50.3286 79.7356 48.1688 81.6204 46.2437C81.7488 46.1117 81.8184 46.0384 81.9321 45.9137C82.0971 45.7377 82.3941 45.8404 82.4088 46.0824L82.6545 49.7089H89.1411V4.49292C89.1411 4.39025 89.0568 4.30591 88.9541 4.30591H87.1904ZM74.0704 43.8493C69.3768 43.8493 66.1646 39.8964 66.1646 34.2091C66.1646 28.5218 69.4428 24.569 74.0704 24.569C78.6979 24.569 81.9761 28.5255 81.9761 34.2091C81.9761 39.8927 78.7676 43.8493 74.0704 43.8493Z" fill="white"/>
<path d="M221.206 18.8011L216.703 21.1773C216.612 21.2249 216.557 21.3203 216.557 21.423V49.7091H223.722V18.8928C223.722 18.7901 223.637 18.7058 223.535 18.7058H221.591C221.455 18.7058 221.327 18.7388 221.206 18.8011Z" fill="white"/>
<path d="M220.139 13.6748C222.526 13.6748 224.459 11.7423 224.459 9.3552C224.459 6.96808 222.526 5.03564 220.139 5.03564C217.752 5.03564 215.82 6.96808 215.82 9.3552C215.82 11.7423 217.752 13.6748 220.139 13.6748Z" fill="white"/>
<path d="M34.6005 37.5826V49.8555C34.6005 50.5046 34.0724 51.0326 33.4234 51.0326H1.17706C0.528027 51.0326 0 50.5046 0 49.8555V17.6019C0 16.9528 0.528027 16.4248 1.17706 16.4248H13.4427V36.4092C13.4427 37.0582 13.9707 37.5862 14.6198 37.5862H34.6041L34.6005 37.5826Z" fill="#4C00FF"/>
<path d="M48.0508 20.2787C48.0508 30.6083 42.0335 37.5643 34.6008 37.5863V24.5836C34.6008 24.2096 34.4505 23.8503 34.1865 23.5862L27.4431 16.8429C27.1791 16.5789 26.8197 16.4285 26.4457 16.4285H13.4431V4.15924C13.4431 3.51021 13.9711 2.98218 14.6201 2.98218H32.8151C41.4322 2.98218 48.0508 9.93087 48.0508 20.2787Z" fill="#FF5252"/>
<path d="M34.1868 23.5862C34.4508 23.8502 34.6012 24.2095 34.6012 24.5836V37.5862H14.6168C13.9678 37.5862 13.4397 37.0582 13.4397 36.4092V16.4248H26.4424C26.8164 16.4248 27.1758 16.5751 27.4398 16.8392L34.1868 23.5862Z" fill="white"/>
<path d="M184.215 18.6985V35.544C184.215 48.312 177.061 50.3361 170.68 50.3361C164.3 50.3361 157.146 48.312 157.146 35.544V18.6985H164.3V37.9508C164.3 39.7732 164.758 43.8531 170.68 43.8531C176.602 43.8531 177.061 39.7732 177.061 37.9508V18.6985H184.215Z" fill="white"/>
<path d="M294.02 46.5713V47.0065H293.028V49.6417H292.545V47.0065H291.554V46.5713H294.02ZM297.477 49.6417H296.993V47.224L296.05 49.0373H295.785L294.842 47.2482V49.6417H294.358V46.5713H294.987L295.905 48.3361L296.824 46.5713H297.453L297.477 49.6417Z" fill="white"/>
</g>
</g>
<defs>
<clipPath id="clip0_5741_300">
<rect width="300" height="66" fill="white"/>
</clipPath>
<clipPath id="clip1_5741_300">
<rect width="300" height="59.9517" fill="white" transform="translate(0 3)"/>
</clipPath>
</defs>
</svg>
