<svg width="300" height="63" viewBox="0 0 300 63" fill="none" xmlns="http://www.w3.org/2000/svg">
<path d="M0 4C0 1.79086 1.79086 0 4 0H296C298.209 0 300 1.79086 300 4V59C300 61.2091 298.209 63 296 63H4C1.79086 63 0 61.2091 0 59V4Z" fill="white"/>
<g clip-path="url(#clip0_5769_696)">
<path d="M288.505 28.4982V47.6485H281.473V29.7635C281.473 25.4079 279.599 22.9745 275.949 22.9745C272.299 22.9745 269.89 25.5295 269.209 29.8122C269.014 30.8342 268.966 32.4159 268.966 35.7495V47.6242H261.933V17.2075H268.163C268.187 17.4752 268.333 20.2005 268.333 20.3709C268.333 20.5899 268.601 20.7115 268.771 20.5655C271.35 18.5215 274.197 16.6235 278.164 16.6235C284.685 16.6235 288.505 21.0279 288.505 28.4982Z" fill="black"/>
<path d="M250.594 17.2319L250.375 20.7116C250.351 20.9306 250.083 21.0523 249.937 20.9063C249.085 20.1033 245.946 16.6479 240.617 16.6479C232.977 16.6479 227.356 23.2423 227.356 32.1969C227.356 41.2733 232.928 47.8919 240.617 47.8919C245.752 47.8919 248.891 44.5583 249.475 43.8283C249.645 43.6336 249.961 43.7553 249.961 43.9986C249.888 44.9233 249.767 47.2349 248.988 49.2059C248.015 51.6879 245.825 53.9996 241.42 53.9996C237.795 53.9996 234.583 52.6126 231.541 49.6439L227.867 54.6809C231.2 58.4526 236.456 60.5696 242.175 60.5696C251.373 60.5696 256.896 54.2673 256.896 43.9743V17.2319H250.594ZM242.126 41.5166C237.576 41.5166 234.364 37.5746 234.364 32.1969C234.364 26.8193 237.576 22.9746 242.126 22.9746C246.676 22.9746 249.888 26.7949 249.888 32.1969C249.864 37.5989 246.652 41.5166 242.126 41.5166Z" fill="black"/>
<path d="M212.658 38.6208C212.658 44.3878 207.816 48.2568 200.711 48.2568C195.138 48.2568 190.174 46.0911 187.206 43.0008L189.517 37.5015C191.756 39.5211 195.357 42.4168 200.492 42.4168C204.069 42.4168 206.137 40.8351 206.137 38.8398C206.137 36.5281 203.29 35.9198 199.883 35.2628C195.041 34.2408 188.617 32.5861 188.617 25.9918C188.617 20.4681 193.094 16.6721 199.713 16.6721C204.799 16.6721 209.179 18.6188 212.196 21.1495L208.741 25.9918C205.821 23.6801 202.755 22.5365 199.713 22.5365C196.671 22.5365 195.163 23.8018 195.163 25.6268C195.163 28.1818 198.448 28.8388 200.857 29.3255C206.916 30.4935 212.658 32.3185 212.658 38.6208Z" fill="black"/>
<path d="M109.826 16.6235C101.236 16.6235 95.0554 23.2909 95.0554 32.4402C95.0554 41.5895 101.236 48.2569 109.826 48.2569C118.415 48.2569 124.62 41.5895 124.62 32.4402C124.62 23.2909 118.44 16.6235 109.826 16.6235ZM109.826 41.8815C105.275 41.8815 102.063 38.0125 102.063 32.4159C102.063 26.8435 105.202 22.9502 109.826 22.9502C114.425 22.9502 117.588 26.8192 117.588 32.4159C117.588 38.0125 114.376 41.8815 109.826 41.8815Z" fill="black"/>
<path d="M127.102 32.4402C127.102 23.4125 133.283 16.6235 141.532 16.6235C148.078 16.6235 152.871 19.9085 155.11 26.0892L148.881 28.4495C147.177 24.6292 144.939 22.9989 141.556 22.9989C137.322 22.9989 134.159 26.9895 134.159 32.4645C134.159 37.9152 137.298 41.9302 141.556 41.9302C144.963 41.9302 147.177 40.2999 148.881 36.4795L155.11 38.8399C152.871 45.0205 148.078 48.3055 141.532 48.3055C133.283 48.2569 127.102 41.4679 127.102 32.4402Z" fill="black"/>
<path d="M89.5074 3.09424C89.3857 3.09424 89.2397 3.11857 89.1181 3.19157L84.5434 5.6249C84.4461 5.67357 84.3974 5.7709 84.3974 5.86824V20.3466C84.3974 20.5899 84.1054 20.6872 83.9351 20.5412C83.2537 19.9572 81.6721 18.4729 79.4821 17.4509C78.3384 16.9156 76.6594 16.6236 75.1264 16.6236C67.4371 16.6236 61.8647 23.2909 61.8647 32.4402C61.8647 41.5896 67.4371 48.2569 75.1264 48.2569C79.1657 48.2569 82.2074 46.1399 84.0567 44.2419C84.1784 44.1202 84.2514 44.0472 84.3731 43.9256C84.5434 43.7552 84.8354 43.8526 84.8354 44.0959L85.0788 47.6486H91.4297V3.2889C91.4297 3.19157 91.3567 3.09424 91.2351 3.09424H89.5074ZM76.6351 41.8816C72.0361 41.8816 68.8727 38.0126 68.8727 32.4159C68.8727 26.8192 72.1091 22.9746 76.6351 22.9746C81.1854 22.9746 84.3974 26.8436 84.3974 32.4402C84.3974 38.0126 81.2584 41.8816 76.6351 41.8816Z" fill="black"/>
<path d="M220.932 17.3292L216.527 19.6652C216.43 19.7139 216.381 19.8112 216.381 19.9085V47.6485H223.414V17.4022C223.414 17.3049 223.341 17.2075 223.219 17.2075H221.321C221.175 17.2319 221.053 17.2562 220.932 17.3292Z" fill="black"/>
<path d="M219.885 12.2922C222.221 12.2922 224.119 10.3942 224.119 8.05822C224.119 5.72222 222.221 3.82422 219.885 3.82422C217.549 3.82422 215.651 5.72222 215.651 8.05822C215.651 10.3942 217.549 12.2922 219.885 12.2922Z" fill="black"/>
<path d="M184.675 17.2075V33.7299C184.675 46.2615 177.667 48.2325 171.414 48.2325C165.16 48.2325 158.152 46.2372 158.152 33.7299V17.2075H165.16V35.4819C165.16 37.2582 165.598 41.8815 171.414 41.8815C177.229 41.8815 177.667 37.2825 177.667 35.4819V17.2075H184.675Z" fill="black"/>
<path d="M292.52 44.5339V44.9719H291.523V47.6243H291.036V44.9719H290.038V44.5339H292.52ZM296 47.6243H295.513V45.1909L294.564 47.0159H294.297L293.348 45.2153V47.6243H292.861V44.5339H293.494L294.418 46.3103L295.343 44.5339H295.976L296 47.6243Z" fill="black"/>
<path d="M37.945 35.7496V47.7946C37.945 48.4272 37.434 48.9382 36.8013 48.9382H5.14367C4.511 48.9382 4 48.4272 4 47.7946V16.1612C4 15.5286 4.511 15.0176 5.14367 15.0176H17.1643V34.6059C17.1643 35.2386 17.6753 35.7496 18.308 35.7496H37.945Z" fill="#4C00FF"/>
<path d="M51.1337 18.7649C51.1337 28.8876 45.2207 35.7253 37.9451 35.7496V22.9989C37.9451 22.6339 37.7991 22.2689 37.5314 22.0256L30.9127 15.4069C30.6451 15.1393 30.3044 14.9933 29.9394 14.9933H17.1887V2.97259C17.1887 2.33992 17.6997 1.82892 18.3324 1.82892H36.1687C44.6367 1.80459 51.1337 8.61792 51.1337 18.7649Z" fill="#FF5252"/>
<path d="M37.5314 22.0014C37.7991 22.2691 37.9451 22.6097 37.9451 22.9747V35.7254H18.3324C17.6997 35.7254 17.1887 35.2144 17.1887 34.5817V14.9934H29.9394C30.3044 14.9934 30.6694 15.1394 30.9127 15.4071L37.5314 22.0014Z" fill="black"/>
</g>
<defs>
<clipPath id="clip0_5769_696">
<rect width="292" height="58.7407" fill="white" transform="translate(4 1.80469)"/>
</clipPath>
</defs>
</svg>
