<svg width="300" height="63" viewBox="0 0 300 63" fill="none" xmlns="http://www.w3.org/2000/svg">
<g clip-path="url(#clip0_5701_5379)">
<path d="M292.3 28.4249V48.0999H285.075V29.7249C285.075 25.2499 283.15 22.7499 279.4 22.7499C275.65 22.7499 273.175 25.3749 272.475 29.7749C272.275 30.8249 272.225 32.4499 272.225 35.8749V48.0749H265V16.8249H271.4C271.425 17.0999 271.575 19.8999 271.575 20.0749C271.575 20.2999 271.85 20.4249 272.025 20.2749C274.675 18.1749 277.6 16.2249 281.675 16.2249C288.375 16.2249 292.3 20.7499 292.3 28.4249Z" fill="black"/>
<path d="M253.35 16.85L253.125 20.425C253.1 20.65 252.825 20.775 252.675 20.625C251.8 19.8 248.575 16.25 243.1 16.25C235.25 16.25 229.475 23.025 229.475 32.225C229.475 41.55 235.2 48.35 243.1 48.35C248.375 48.35 251.6 44.925 252.2 44.175C252.375 43.975 252.7 44.1 252.7 44.35C252.625 45.3 252.5 47.675 251.7 49.7C250.7 52.25 248.45 54.625 243.925 54.625C240.2 54.625 236.9 53.2 233.775 50.15L230 55.325C233.425 59.2 238.825 61.375 244.7 61.375C254.15 61.375 259.825 54.9 259.825 44.325V16.85H253.35ZM244.65 41.8C239.975 41.8 236.675 37.75 236.675 32.225C236.675 26.7 239.975 22.75 244.65 22.75C249.325 22.75 252.625 26.675 252.625 32.225C252.6 37.775 249.3 41.8 244.65 41.8Z" fill="black"/>
<path d="M214.375 38.8249C214.375 44.7499 209.4 48.7249 202.1 48.7249C196.375 48.7249 191.275 46.4999 188.225 43.3249L190.6 37.6749C192.9 39.7499 196.6 42.7249 201.875 42.7249C205.55 42.7249 207.675 41.0999 207.675 39.0499C207.675 36.6749 204.75 36.0499 201.25 35.3749C196.275 34.3249 189.675 32.6249 189.675 25.8499C189.675 20.1749 194.275 16.2749 201.075 16.2749C206.3 16.2749 210.8 18.2749 213.9 20.8749L210.35 25.8499C207.35 23.4749 204.2 22.2999 201.075 22.2999C197.95 22.2999 196.4 23.5999 196.4 25.4749C196.4 28.0999 199.775 28.7749 202.25 29.2749C208.475 30.4749 214.375 32.3499 214.375 38.8249Z" fill="black"/>
<path d="M108.725 16.2249C99.9 16.2249 93.55 23.0749 93.55 32.4749C93.55 41.8749 99.9 48.7249 108.725 48.7249C117.55 48.7249 123.925 41.8749 123.925 32.4749C123.925 23.0749 117.575 16.2249 108.725 16.2249ZM108.725 42.1749C104.05 42.1749 100.75 38.1999 100.75 32.4499C100.75 26.7249 103.975 22.7249 108.725 22.7249C113.45 22.7249 116.7 26.6999 116.7 32.4499C116.7 38.1999 113.4 42.1749 108.725 42.1749Z" fill="black"/>
<path d="M126.475 32.4749C126.475 23.1999 132.825 16.2249 141.3 16.2249C148.025 16.2249 152.95 19.5999 155.25 25.9499L148.85 28.3749C147.1 24.4499 144.8 22.7749 141.325 22.7749C136.975 22.7749 133.725 26.8749 133.725 32.4999C133.725 38.0999 136.95 42.2249 141.325 42.2249C144.825 42.2249 147.1 40.5499 148.85 36.6249L155.25 39.0499C152.95 45.3999 148.025 48.7749 141.3 48.7749C132.825 48.7249 126.475 41.7499 126.475 32.4749Z" fill="black"/>
<path d="M87.85 2.32495C87.725 2.32495 87.575 2.34995 87.45 2.42495L82.75 4.92495C82.65 4.97495 82.6 5.07495 82.6 5.17495V20.0499C82.6 20.2999 82.3 20.4 82.125 20.25C81.425 19.65 79.8 18.125 77.55 17.075C76.375 16.525 74.65 16.225 73.075 16.225C65.175 16.225 59.45 23.075 59.45 32.475C59.45 41.875 65.175 48.7249 73.075 48.7249C77.225 48.7249 80.35 46.5499 82.25 44.5999C82.375 44.4749 82.45 44.4 82.575 44.275C82.75 44.1 83.05 44.2 83.05 44.45L83.3 48.0999H89.825V2.52495C89.825 2.42495 89.75 2.32495 89.625 2.32495H87.85ZM74.625 42.1749C69.9 42.1749 66.65 38.2 66.65 32.45C66.65 26.7 69.975 22.75 74.625 22.75C79.3 22.75 82.6 26.725 82.6 32.475C82.6 38.2 79.375 42.1749 74.625 42.1749Z" fill="black"/>
<path d="M222.875 16.95L218.35 19.35C218.25 19.4 218.2 19.5 218.2 19.6V48.0999H225.425V17.025C225.425 16.925 225.35 16.825 225.225 16.825H223.275C223.125 16.85 223 16.875 222.875 16.95Z" fill="black"/>
<path d="M221.8 11.775C224.2 11.775 226.15 9.82495 226.15 7.42495C226.15 5.02495 224.2 3.07495 221.8 3.07495C219.4 3.07495 217.45 5.02495 217.45 7.42495C217.45 9.82495 219.4 11.775 221.8 11.775Z" fill="black"/>
<path d="M185.625 16.825V33.7999C185.625 46.6749 178.425 48.7 172 48.7C165.575 48.7 158.375 46.65 158.375 33.7999V16.825H165.575V35.5999C165.575 37.4249 166.025 42.1749 172 42.1749C177.975 42.1749 178.425 37.4499 178.425 35.5999V16.825H185.625Z" fill="black"/>
<path d="M296.425 44.8999V45.3499H295.4V48.0749H294.9V45.3499H293.875V44.8999H296.425ZM300 48.0749H299.5V45.5749L298.525 47.4499H298.25L297.275 45.5999V48.0749H296.775V44.8999H297.425L298.375 46.7249L299.325 44.8999H299.975L300 48.0749Z" fill="black"/>
<path d="M34.875 35.875V48.25C34.875 48.9 34.35 49.4249 33.7 49.4249H1.175C0.525 49.4249 0 48.9 0 48.25V15.75C0 15.1 0.525 14.575 1.175 14.575H13.525V34.7C13.525 35.35 14.05 35.875 14.7 35.875H34.875Z" fill="#4C00FF"/>
<path d="M48.425 18.425C48.425 28.825 42.35 35.85 34.875 35.875V22.775C34.875 22.4 34.725 22.025 34.45 21.775L27.65 14.975C27.375 14.7 27.025 14.55 26.65 14.55H13.55V2.19997C13.55 1.54997 14.075 1.02497 14.725 1.02497H33.05C41.75 0.999969 48.425 7.99997 48.425 18.425Z" fill="#FF5252"/>
<path d="M34.45 21.75C34.725 22.025 34.875 22.375 34.875 22.75V35.85H14.725C14.075 35.85 13.55 35.325 13.55 34.675V14.55H26.65C27.025 14.55 27.4 14.7 27.65 14.975L34.45 21.75Z" fill="black"/>
</g>
<defs>
<clipPath id="clip0_5701_5379">
<rect width="300" height="60.35" fill="white" transform="translate(0 1)"/>
</clipPath>
</defs>
</svg>
