<svg width="96" height="96" viewBox="0 0 96 96" fill="none" xmlns="http://www.w3.org/2000/svg">
<path d="M69.15 69.1501V93.6001C69.15 94.9501 68.1 96.0001 66.75 96.0001H2.4C1.05 96.0001 0 94.9501 0 93.6001V29.2501C0 27.9001 1.05 26.8501 2.4 26.8501H26.85V66.6001C26.85 67.9501 27.9 69.0001 29.25 69.0001L69.15 69.1501Z" fill="#4C00FF"/>
<path d="M96.0016 34.5C96.0016 55.2 84.0016 69 69.1516 69.15V43.2C69.1516 42.45 68.8516 41.7 68.2516 41.25L54.7516 27.75C54.3016 27.3 53.5516 26.85 52.8016 26.85H26.8516V2.4C26.8516 1.05 27.9016 0 29.2516 0H65.5516C82.8016 0 96.0016 13.95 96.0016 34.5Z" fill="#FF5252"/>
<path d="M68.2516 41.1001C68.7016 41.5501 69.1516 42.3001 69.1516 43.0501V69.1501L29.2516 69.0001C27.9016 69.0001 26.8516 67.9501 26.8516 66.6001V26.8501H52.8016C53.5516 26.8501 54.3016 27.1501 54.7516 27.7501L68.2516 41.1001Z" fill="black"/>
</svg>
