<svg width="32" height="32" viewBox="0 0 32 32" fill="none" xmlns="http://www.w3.org/2000/svg">
<path d="M23.05 23.0502V31.2002C23.05 31.6502 22.7 32.0002 22.25 32.0002H0.8C0.35 32.0002 0 31.6502 0 31.2002V9.7502C0 9.3002 0.35 8.9502 0.8 8.9502H8.95V22.2002C8.95 22.6502 9.3 23.0002 9.75 23.0002L23.05 23.0502Z" fill="#4C00FF"/>
<path d="M32.0007 11.5C32.0007 18.4 28.0007 23 23.0507 23.05V14.4C23.0507 14.15 22.9507 13.9 22.7507 13.75L18.2507 9.25C18.1007 9.1 17.8507 8.95 17.6007 8.95H8.95068V0.8C8.95068 0.35 9.30068 0 9.75068 0H21.8507C27.6007 0 32.0007 4.65 32.0007 11.5Z" fill="#FF5252"/>
<path d="M22.7507 13.7002C22.9007 13.8502 23.0507 14.1002 23.0507 14.3502V23.0502L9.75068 23.0002C9.30068 23.0002 8.95068 22.6502 8.95068 22.2002V8.9502H17.6007C17.8507 8.9502 18.1007 9.0502 18.2507 9.2502L22.7507 13.7002Z" fill="black"/>
</svg>
